<?xml version="1.0" encoding="utf-8"?>
<!-- Generator: Adobe Illustrator 23.0.0, SVG Export Plug-In . SVG Version: 6.00 Build 0)  -->
<svg version="1.1" id="Layer_1" xmlns="http://www.w3.org/2000/svg" xmlns:xlink="http://www.w3.org/1999/xlink" x="0px" y="0px"
	 viewBox="0 0 240.1 239.1" style="enable-background:new 0 0 240.1 239.1;" xml:space="preserve">
<style type="text/css">
	.st0{fill:#BC4122;}
	.st1{fill:#FFFFFF;}
</style>
<g transform="translate(30.01 30.01) scale(.7916)">
	<circle class="st0" cx="118.7" cy="111.2" r="144"/>
	<rect x="-25.3" y="111.2" class="st0" width="144" height="144"/>
</g>
<path class="st1" d="M201.4,83.2l-26-39c-2.4-3.6-6.4-5.7-10.7-5.7h-19.4c-2.7,0-5.3,0.8-7.5,2.4L124,50.7l-13.8-9.8
	c-2.2-1.6-4.8-2.4-7.5-2.4H83.3c-4.3,0-8.3,2.1-10.7,5.7l-26,39c-1.4,2.1-2.2,4.6-2.2,7.1v43.2c0,4,1.8,7.6,4.9,10.1l13.1,10.3v0h0
	l50.8,39.9c3,2.4,6.9,3.7,10.7,3.7c3.9,0,7.7-1.3,10.7-3.7l50.8-39.9h0v0l13.1-10.3c3.1-2.4,4.9-6.1,4.9-10.1V90.3
	C203.5,87.8,202.8,85.3,201.4,83.2z M198.4,133.5c0,2.4-1.1,4.6-2.9,6.1l-9.9,7.8v-19.1h-5.1v23.1l-18,14.1v-14.1h-5.1v18.2
	l-25.8,20.2c-1.5,1.1-3.2,1.9-5,2.2v-17.6h-5.1V192c-1.8-0.3-3.5-1.1-5-2.2l-25.8-20.2v-18.2h-5.1v14.1l-18-14.1v-23.1h-5.1v19.1
	l-9.9-7.8c-1.9-1.5-2.9-3.7-2.9-6.1V90.3c0-1.5,0.4-3,1.3-4.3l26-39c1.4-2.1,3.8-3.4,6.4-3.4h19.4c1.6,0,3.2,0.5,4.5,1.4L124,57
	l16.8-12c1.3-0.9,2.9-1.4,4.5-1.4h19.4c2.6,0,5,1.3,6.4,3.4l26,39c0.8,1.3,1.3,2.7,1.3,4.3V133.5z"/>
<path class="st1" d="M95.8,97.5v5.1c0.7,0,1.3,0.1,1.9,0.1c-1.2,1.4-1.9,3.2-1.9,5c0,4.2,3.5,7.7,7.7,7.7c2.2,0,4.2-0.9,5.6-2.4
	c0.2,2.3,0.1,4.7-0.4,6.9l2.5,0.6l2.5,0.6c0.1-0.4,2.6-10.6-2.9-17.6C107.6,99.5,102.6,97.5,95.8,97.5z M103.5,110.3
	c-1.4-0.1-2.5-1.3-2.5-2.7c0.1-1.3,1.1-2.4,2.5-2.5c1.4,0.1,2.5,1.3,2.5,2.7C105.9,109.2,104.8,110.2,103.5,110.3z M137.2,103.6
	c-5.5,7-3,17.2-2.9,17.6l5-1.2c-0.5-2.3-0.6-4.6-0.4-6.9c1.4,1.5,3.4,2.4,5.6,2.4c4.2,0,7.7-3.5,7.7-7.7c0-1.9-0.7-3.6-1.9-5
	c0.6,0,1.2-0.1,1.9-0.1v-5.1C145.4,97.5,140.4,99.5,137.2,103.6z M144.5,110.3c-1.4-0.1-2.5-1.3-2.5-2.7c0.1-1.3,1.1-2.4,2.5-2.5
	c1.4,0.1,2.5,1.3,2.5,2.7C146.9,109.2,145.8,110.2,144.5,110.3z"/>
<path class="st1" d="M165,56.4c-7.2,0-14,4.9-15.4,10.6c-1.3-0.2-2.7-0.3-4-0.3H142c-6.7,0-14.6,4.9-18,7.1
	c-3.3-2.2-11.3-7.1-18-7.1h-3.6c-1.4,0-2.7,0.1-4,0.3c-1.5-5.7-8.3-10.6-15.4-10.6c-8.9,0-18,6.2-18,18c0,4.8,2,9.5,5.3,12.6
	c0.9,0.9,1.9,1.6,3.1,2.2c-0.4,1.9-0.6,3.8-0.6,5.7v28.2c0,3.8,5.5,7.8,17.3,15.5c3.2,2.1,7.2,4.6,8.4,5.8v12
	c-0.1,6.2,2.2,9.8,4.1,11.8c2.3,2.4,5.4,3.7,8.7,3.7c5.4,0,10.1-2.7,12.8-6.8c2.7,4.1,7.4,6.8,12.8,6.8c3.3,0,6.4-1.3,8.7-3.7
	c1.9-2,4.2-5.6,4.1-11.7v-12.1c1.2-1.2,5.2-3.7,8.4-5.8c11.7-7.6,17.3-11.6,17.3-15.5V94.9c0-2-0.2-3.9-0.6-5.7
	c1.1-0.6,2.2-1.3,3.1-2.2c3.3-3.1,5.3-7.9,5.3-12.6C183,62.6,174,56.4,165,56.4z M73.8,83.3c-2.3-2.2-3.7-5.5-3.7-8.9
	c0-8.8,6.6-12.8,12.8-12.8c4.9,0,9.4,3.4,10.4,6.5c-8.2,2.6-15,8.6-18.4,16.1C74.6,84,74.2,83.7,73.8,83.3z M124,146.2
	c-6.3,0-9.4-1.8-11-3.3c-1.2-1.2-1.9-2.8-1.9-4.3c0-4.5,4.8-5.1,7.7-5.1h10.3c2.9,0,7.7,0.7,7.7,5.1c0,1.6-0.7,3.1-1.9,4.3
	C133.4,144.4,130.3,146.2,124,146.2z M155.2,134.3c-8.5,5.5-10.7,7.1-10.7,9.4v12.9c0.1,3.5-0.8,6.3-2.6,8.1
	c-1.3,1.4-3.2,2.1-5.1,2.1c-6.7,0-10.3-5.3-10.3-10.3v-5.2c6.4-0.5,10.1-2.8,12-4.8c2.2-2.2,3.4-5,3.4-8c0-5-3.4-10.2-12.8-10.2
	h-10.3c-9.4,0-12.8,5.3-12.8,10.2c0,3,1.2,5.8,3.4,8c2,2,5.6,4.3,12,4.8v5.2c0,5-3.6,10.3-10.3,10.3c-1.9,0-3.7-0.8-5.1-2.1
	c-1.8-1.8-2.7-4.6-2.6-8.1v-12.8c0-2.3-2.2-3.8-10.7-9.4c-5-3.2-14.2-9.2-14.9-11.2V94.9c0-12.5,11.3-23.1,24.6-23.1h3.6
	c5.6,0,13.7,5.2,16.4,7.2l1.5,1.2l1.5-1.2c2.7-2,10.8-7.2,16.4-7.2h3.6c13.3,0,24.6,10.6,24.6,23.1l0,28
	C169.4,125.1,160.2,131.1,155.2,134.3z M174.2,83.3c-0.4,0.3-0.8,0.7-1.2,0.9c-3.4-7.6-10.1-13.5-18.4-16.1c1-3.1,5.6-6.5,10.4-6.5
	c6.2,0,12.8,4,12.8,12.8C177.9,77.8,176.5,81.1,174.2,83.3z"/>
</svg>
