<?xml version="1.0" encoding="utf-8"?>
<!-- Generator: Adobe Illustrator 23.0.0, SVG Export Plug-In . SVG Version: 6.00 Build 0)  -->
<svg version="1.1" id="Layer_1" xmlns="http://www.w3.org/2000/svg" xmlns:xlink="http://www.w3.org/1999/xlink" x="0px" y="0px"
	 viewBox="0 0 100 100" style="enable-background:new 0 0 100 100;" xml:space="preserve">
<style type="text/css">
	.st0{fill:#BA4122;}
	.st1{fill:#FFFFFF;}
</style>
<g>
	<g>
		<g>
			<g>
				<g>
					<ellipse class="st0" cx="49.3" cy="50.5" rx="48.4" ry="47.5"/>
					<g>
						<path class="st1" d="M69.6,54.8C69.6,54.8,69.6,54.8,69.6,54.8l-39.7-0.2c-2.2,0-4-1.8-4-4c0-2.2,1.8-4,4-4c0,0,0,0,0,0
							l39.7,0.2c2.2,0,4,1.8,4,4C73.6,53,71.8,54.8,69.6,54.8z"/>
						<path class="st1" d="M41.4,70.7c-1.1,0-2.3-0.5-3.1-1.4L25.5,54.1c-1.7-2.1-1.7-5.1,0.1-7.1l12.9-14.2c1.5-1.6,4-1.8,5.7-0.3
							c1.6,1.5,1.8,4,0.3,5.7L33.1,50.7l11.3,13.4c1.4,1.7,1.2,4.2-0.5,5.7C43.2,70.3,42.3,70.7,41.4,70.7z"/>
					</g>
				</g>
			</g>
		</g>
	</g>
</g>
</svg>
