<?xml version="1.0" encoding="utf-8"?>
<!-- Generator: Adobe Illustrator 23.0.0, SVG Export Plug-In . SVG Version: 6.00 Build 0)  -->
<svg version="1.1" id="Layer_1" xmlns="http://www.w3.org/2000/svg" xmlns:xlink="http://www.w3.org/1999/xlink" x="0px" y="0px"
	 viewBox="0 0 240.1 239.1" style="enable-background:new 0 0 240.1 239.1;" xml:space="preserve">
<style type="text/css">
	.st0{fill:#BC4122;}
	.st1{fill:#FFFFFF;}
</style>
<g transform="translate(30.01 30.01) scale(.7916)">
	<circle class="st0" cx="116.2" cy="109.9" r="144"/>
	<rect x="-27.8" y="109.6" class="st0" width="144" height="144"/>
</g>
<path class="st1" d="M137,100.7l-24.1,24.1L103,115c-1.5-1.5-4-1.5-5.5,0c-1.6,1.5-1.6,4-0.1,5.6l12.7,12.7c0.7,0.7,1.7,1.2,2.8,1.2
	c1,0,2.1-0.4,2.8-1.2l27-27c1.5-1.6,1.5-4.1-0.1-5.6S138.6,99.2,137,100.7z M185.3,51.7c-0.4-2.1-2.5-3.5-4.7-3.1
	c-19.6,4.1-39.9,0-56.3-11.5c-1.4-1-3.2-1-4.5,0C103.4,48.6,83,52.8,63.4,48.6c-0.3-0.1-0.5-0.1-0.8-0.1c-2.2,0-4,1.8-4,4V116
	c0,23.3,11.2,45.1,30.1,58.7l31,22.2c0.7,0.5,1.5,0.7,2.3,0.7c0.8,0,1.6-0.3,2.3-0.7l31-22.2c18.9-13.6,30.1-35.4,30.1-58.7V52.5
	C185.4,52.2,185.3,52,185.3,51.7z M177.4,116c0,20.7-10,40.1-26.8,52.2L122,188.8l-28.7-20.6c-16.8-12.1-26.8-31.5-26.8-52.2V57.2
	c19.3,2.9,39.1-1.4,55.4-12.1c16.4,10.7,36.1,15,55.4,12.1V116z"/>
</svg>
