<?xml version="1.0" encoding="utf-8"?>
<!-- Generator: Adobe Illustrator 23.0.0, SVG Export Plug-In . SVG Version: 6.00 Build 0)  -->
<svg version="1.1" id="Layer_1" xmlns="http://www.w3.org/2000/svg" xmlns:xlink="http://www.w3.org/1999/xlink" x="0px" y="0px"
	 viewBox="0 0 240.1 239.1" style="enable-background:new 0 0 240.1 239.1;" xml:space="preserve">
<style type="text/css">
	.st0{fill:#BC4122;}
	.st1{fill:#FFFFFF;}
</style>
<g transform="translate(30.01 30.01) scale(.7916)">
	<circle class="st0" cx="112.5" cy="111.3" r="144"/>
	<rect x="-31.5" y="111.3" class="st0" width="144" height="144"/>
</g>
<path class="st1" d="M179.4,60.7c-7.2-7.2-18.1-9.7-28.3-6.5l-32,10.1l-32-10.1C76.9,51,66,53.5,58.8,60.7L37.6,81.9
	c-11,11-10.4,29.4,1.3,41c12.8,12.8,26.6,26.6,38.1,38.1c-1.1,4.1,0.1,8.4,3,11.4l0.2,0.2c2.2,2.2,5.2,3.4,8.4,3.4
	c1,0,2.1-0.1,3.1-0.4l1.2,1.2c1.8,1.8,4.1,3.1,6.6,3.6c2.2,1.9,4.9,2.9,7.8,2.9c0.1,0,0.3,0,0.4,0c3.3-0.1,6.5-1.5,8.8-3.9l2.6-2.7
	l2.7,2.7c2.3,2.4,5.5,3.7,8.8,3.9c0.1,0,0.3,0,0.4,0c2.9,0,5.6-1,7.8-2.9c2.5-0.5,4.8-1.8,6.6-3.6l1.2-1.2c4.1,1.1,8.4-0.1,11.4-3
	l0.2-0.2c2.9-3,4.1-7.3,3-11.4c11.4-11.4,25-25,38.1-38.1c11.6-11.7,12.2-30.1,1.2-41L179.4,60.7z M84.2,168.5l-0.2-0.2
	c-0.3-0.3-0.6-0.7-0.9-1.1l2.2,2.2C84.9,169.2,84.5,168.9,84.2,168.5L84.2,168.5z M112.4,175.4c-0.4,0.4-0.8,0.7-1.2,1
	c1.2-1.4,2-3.2,2.4-5l1.4,1.4L112.4,175.4z M154.1,168.4l-0.2,0.2c-2.5,2.5-6.7,2.3-9.4-0.5l-44.2-44.2c-1.1-1.1-2.9-1.2-4.1,0
	c-1.1,1.1-1.2,2.9,0,4.1c0,0,0,0,0,0l38.5,38.5l0,0c1.3,1.3,2.1,3.1,2.2,4.9c0.2,3.3-2.3,6.1-5.6,6.2c-0.2,0-0.4,0-0.7,0
	c-1.9-0.1-3.6-0.9-4.9-2.2l-4.7-4.7l0,0l-33.8-33.8c-1.1-1.1-2.9-1.1-4.1,0c-1.1,1.1-1.1,2.9,0,4.1l22.7,22.7l0,0
	c1.3,1.3,2.1,3.1,2.2,4.9c0.1,1.7-0.5,3.3-1.7,4.5l-0.1,0.1c-2.5,2.5-6.7,2.3-9.4-0.4c-0.8-0.8-1.6-1.6-2.5-2.5l0,0
	c-3.4-3.4-7.3-7.3-11.6-11.6c-0.2-0.4-0.6-0.7-1-1C70.1,146,56,131.9,42.9,118.8c-9.4-9.4-10-24.2-1.3-32.9l21.2-21.1
	c5.7-5.7,14.3-7.6,22.5-5.1l24.2,7.6L96,71.6c-1.3,0.4-2.1,1.7-2,3l0.3,3.5c0.2,4.4,2.2,8.6,5.5,11.5c3.4,3,7.9,4.4,12.4,3.9
	l1.9-0.2l2.8,2.8l0,0l0,0l39.5,39.6c2.7,2.7,2.9,6.9,0.5,9.4l0,0c-2.4,2.4-6.5,2.3-9.2-0.3c-4.5-4.5-9.4-9.4-14-14
	c-10.4-10.4-19.4-19.4-20.3-20.3c-1.1-1.1-2.9-1.1-4.1,0c-1.1,1.1-1.1,2.9,0,4.1c0.9,0.9,9.9,9.9,20.3,20.3l13.7,13.7
	c0,0,0.1,0.1,0.1,0.1c0.1,0.1,0.2,0.2,0.3,0.3c3.7,3.7,7.1,7.1,9.9,9.8C156.4,161.7,156.6,165.9,154.1,168.4L154.1,168.4z
	 M195.2,118.8c-12.6,12.6-25.7,25.7-36.8,36.8c-0.2-0.3-0.5-0.5-0.7-0.8c-0.8-0.8-1.6-1.6-2.4-2.4c2.2-0.5,4.2-1.6,5.8-3.1l0,0
	c4.7-4.7,4.5-12.6-0.5-17.5l-37.5-37.6l2.6-2.6c1.1-1.1,1.1-2.9,0-4.1c-0.6-0.6-1.5-0.9-2.3-0.8l-11.7,1.1c-2.9,0.3-5.9-0.6-8.1-2.5
	c-2.2-1.9-3.4-4.6-3.5-7.5c0,0,0-0.1,0-0.1l-0.1-1.3l19.9-6.3l0,0l32.9-10.4c8.2-2.6,16.8-0.6,22.5,5.1L196.5,86
	C205.2,94.7,204.6,109.4,195.2,118.8z"/>
</svg>
