<?xml version="1.0" encoding="utf-8"?>
<!-- Generator: Adobe Illustrator 23.0.0, SVG Export Plug-In . SVG Version: 6.00 Build 0)  -->
<svg version="1.1" id="Layer_1" xmlns="http://www.w3.org/2000/svg" xmlns:xlink="http://www.w3.org/1999/xlink" x="0px" y="0px"
	 viewBox="0 0 103 93" style="enable-background:new 0 0 103 93;" xml:space="preserve">
<style type="text/css">
	.st0{fill:#D14320;}
</style>
<path id="XMLID_301_" class="st0" d="M54.1,46.3L94.3,6c0.9-0.9,0.9-2.3,0-3.1c-0.9-0.9-2.3-0.9-3.1,0L51,43.1L10.7,2.9
	C9.8,2,8.4,2,7.6,2.9C6.7,3.7,6.7,5.2,7.6,6l40.2,40.3L7.6,86.5c-0.9,0.9-0.9,2.3,0,3.1c0.4,0.4,1,0.7,1.6,0.7s1.1-0.2,1.6-0.7
	L51,49.4l40.2,40.2c0.4,0.4,1,0.7,1.6,0.7c0.6,0,1.1-0.2,1.6-0.7c0.9-0.9,0.9-2.3,0-3.1L54.1,46.3z"/>
</svg>
