<?xml version="1.0" encoding="utf-8"?>
<!-- Generator: Adobe Illustrator 23.0.0, SVG Export Plug-In . SVG Version: 6.00 Build 0)  -->
<svg version="1.1" id="Layer_1" xmlns="http://www.w3.org/2000/svg" xmlns:xlink="http://www.w3.org/1999/xlink" x="0px" y="0px"
	 viewBox="0 0 100 100" style="enable-background:new 0 0 100 100;" xml:space="preserve">
<style type="text/css">
	.st0{fill:#F4F4F4;}
	.st1{fill:#D14320;}
</style>
<g>
	<circle class="st0" cx="48.5" cy="50.5" r="44.5"/>
</g>
<g id="XMLID_296_">
	<path id="XMLID_297_" class="st1" d="M69.9,48.5H51.1V29.6c0-1.1-0.9-1.9-1.9-1.9c-1.1,0-1.9,0.9-1.9,1.9v18.8H28.4
		c-1.1,0-1.9,0.9-1.9,1.9c0,1.1,0.9,1.9,1.9,1.9h18.8v18.8c0,1.1,0.9,1.9,1.9,1.9c1.1,0,1.9-0.9,1.9-1.9V52.3h18.8
		c1.1,0,1.9-0.9,1.9-1.9C71.8,49.3,70.9,48.5,69.9,48.5z"/>
</g>
</svg>
