<?xml version="1.0" encoding="utf-8"?>
<!-- Generator: Adobe Illustrator 23.0.0, SVG Export Plug-In . SVG Version: 6.00 Build 0)  -->
<svg version="1.1" id="Layer_1" xmlns:svgjs="http://svgjs.com/svgjs"
	 xmlns="http://www.w3.org/2000/svg" xmlns:xlink="http://www.w3.org/1999/xlink" x="0px" y="0px" viewBox="0 0 219 157"
	 style="enable-background:new 0 0 219 157;" xml:space="preserve">
<style type="text/css">
	.st0{fill:#BC4122;}
</style>
<path class="st0" d="M116.3,64.6c0.1,0.3,0.2,0.5,0.3,0.8c2,5.8,5.5,11,10,15.1c1.4,1.3,2.9,2.4,4.5,3.5c0.3,0.2,0.5,0.4,0.8,0.5
	s0.4,0.3,0.6,0.4c1.4,0.8,2.8,1.6,4.3,2.3c0.5,0.2,1,0.4,1.5,0.6c1.3,0.5,2.6,1,4,1.4c0.6,0.2,1.2,0.4,1.9,0.6
	c1.9,0.5,3.8,0.9,5.7,1.2c0.1,0,0.2,0,0.3,0.1c0.1,0,0.3,0,0.4,0c5.7,0.8,11.5,0.5,17.1-0.8c-1.3,4.5-3.5,8.8-6.4,12.5
	c-3.1,4.2-11.7,13.9-23.6,14.7c-3.3,0.2-6,2.9-6.3,6.2l-1.6,19.9c-0.3,3.7,2.5,7,6.2,7.3c0.4,0,0.8,0,1.1,0
	c28.5-2.5,70.9-25.9,76.7-63.4c3.8-24.7-2.6-50.9-16.4-66.9c-7-8.6-17.1-14.1-28.2-15.2l-0.1,0C168,5.1,166.8,5,165.5,5
	c-15.8-0.5-31,6-41.5,17.9c-8.3,9.9-11.7,23.1-9.2,35.8C115.2,60.7,115.7,62.7,116.3,64.6L116.3,64.6z M187.3,29.3
	c11.1,12.9,16.4,35.4,13.3,56c-4.2,27-33.6,45.6-56.6,50.7l0.5-6c16.5-3.8,29.3-18.2,34.6-31.4c3.4-8.3,3.2-15.2-0.6-19.3
	c-3.2-3.4-8.1-4.4-12.5-2.7c-1.6,0.5-3.2,0.8-4.9,1c-0.1,0-0.1,0-0.2,0c-4.8-0.7-20.7-4.1-23.9-21.3c-1.6-8.3,0.4-17,5.6-23.7
	c6.6-8.1,16.2-13.1,26.6-13.8C176.3,19.9,182.8,23.6,187.3,29.3L187.3,29.3z M5.7,59.3c0.4,2,0.9,3.9,1.5,5.8
	c0.1,0.3,0.2,0.5,0.3,0.8c2.7,7.6,7.8,14.1,14.5,18.5c0.2,0.2,0.5,0.3,0.7,0.5c0.3,0.2,0.4,0.3,0.6,0.4c1.4,0.8,2.8,1.6,4.3,2.3
	c0.5,0.2,1,0.4,1.5,0.6c1.3,0.6,2.7,1,4,1.5c0.6,0.2,1.2,0.4,1.8,0.6c1.9,0.5,3.8,0.9,5.7,1.2c0.1,0,0.2,0,0.3,0.1s0.3,0,0.4,0
	c5.7,0.8,11.5,0.5,17.1-0.8c-1.3,4.5-3.4,8.8-6.4,12.5c-3.1,4.2-11.7,13.9-23.6,14.7c-3.3,0.2-6,2.9-6.3,6.2l-1.6,19.9
	c-0.3,3.7,2.5,7,6.2,7.3c0.4,0,0.8,0,1.1,0c28.5-2.5,70.9-25.9,76.7-63.4c3.8-24.7-2.6-50.9-16.4-66.9c-7-8.6-17.1-14.1-28.2-15.2
	l-0.1,0c-1.2-0.1-2.5-0.2-3.8-0.2c-15.8-0.5-31,6-41.5,17.9C6.7,33.4,3.3,46.5,5.7,59.3L5.7,59.3z M78.2,29.8
	c11.1,12.9,16.4,35.4,13.3,56c-4.2,27-33.6,45.6-56.6,50.7l0.5-6C52,126.7,64.7,112.3,70,99.1c3.4-8.3,3.2-15.2-0.6-19.3
	c-3.2-3.4-8.1-4.4-12.5-2.7c-1.6,0.5-3.2,0.8-4.9,1c-0.1,0-0.1,0-0.2,0c-4.8-0.7-20.7-4.1-23.9-21.3c-1.6-8.3,0.4-17,5.6-23.7
	C40.1,25,49.8,20,60.2,19.3C67.3,20.4,73.7,24.1,78.2,29.8L78.2,29.8z"/>
</svg>
