<?xml version="1.0" encoding="utf-8"?>
<!-- Generator: Adobe Illustrator 23.0.0, SVG Export Plug-In . SVG Version: 6.00 Build 0)  -->
<svg version="1.1" id="Layer_1" xmlns:svgjs="http://svgjs.com/svgjs"
	 xmlns="http://www.w3.org/2000/svg" xmlns:xlink="http://www.w3.org/1999/xlink" x="0px" y="0px" viewBox="0 0 219 157"
	 style="enable-background:new 0 0 219 157;" xml:space="preserve">
<style type="text/css">
	.st0{fill:#BC4122;}
</style>
<path class="st0" d="M103.6,91.5c-0.1-0.3-0.2-0.5-0.3-0.8c-2-5.8-5.5-11-10-15.1c-1.4-1.3-2.9-2.4-4.4-3.5
	c-0.3-0.2-0.5-0.4-0.8-0.5c-0.3-0.2-0.4-0.3-0.6-0.4c-1.4-0.8-2.8-1.6-4.3-2.3c-0.5-0.2-1-0.4-1.5-0.6c-1.3-0.5-2.6-1-4-1.5
	c-0.6-0.2-1.2-0.4-1.9-0.6c-1.9-0.5-3.8-0.9-5.7-1.2c-0.1,0-0.2,0-0.3-0.1c-0.1,0-0.3,0-0.5,0c-5.7-0.8-11.5-0.5-17.1,0.8
	c1.3-4.5,3.5-8.8,6.4-12.5c3.2-4.1,11.7-13.9,23.6-14.6c3.3-0.2,6-2.8,6.3-6.2l1.7-19.9c0.3-3.7-2.4-7-6.2-7.3c-0.4,0-0.8,0-1.1,0
	c-28.5,2.4-71.1,25.6-77,63.1C2.3,93,8.6,119.2,22.3,135.3c7,8.6,17.1,14.2,28.1,15.3h0.1c1.2,0.1,2.5,0.2,3.8,0.2
	c15.8,0.6,31.1-5.9,41.5-17.8c8.4-9.9,11.8-23,9.4-35.8C104.8,95.3,104.3,93.4,103.6,91.5L103.6,91.5z M32.5,126.5
	c-11.1-12.9-16.3-35.5-13-56.1c4.3-27,33.8-45.4,56.8-50.5l-0.5,6C59.3,29.6,46.4,44,41.1,57.1c-3.4,8.3-3.2,15.2,0.5,19.3
	c3.2,3.4,8.1,4.5,12.4,2.8c1.6-0.5,3.2-0.8,4.9-1c0.1,0,0.1,0,0.2,0c4.8,0.7,20.7,4.2,23.8,21.4c1.6,8.3-0.5,17-5.7,23.7
	c-6.6,8.1-16.3,13-26.7,13.6C43.4,135.9,37,132.1,32.5,126.5L32.5,126.5z M214.2,97.3c-0.4-2-0.9-3.9-1.5-5.8
	c-0.1-0.3-0.2-0.5-0.3-0.8c-2.7-7.6-7.7-14.1-14.4-18.6c-0.2-0.2-0.5-0.3-0.7-0.5c-0.3-0.2-0.4-0.3-0.6-0.4
	c-1.4-0.9-2.8-1.6-4.3-2.3c-0.5-0.2-1-0.4-1.5-0.6c-1.3-0.6-2.6-1.1-4-1.5c-0.6-0.2-1.2-0.4-1.8-0.6c-1.9-0.5-3.8-0.9-5.7-1.2
	c-0.1,0-0.2,0-0.3-0.1s-0.3,0-0.4,0c-5.7-0.8-11.5-0.5-17.1,0.8c1.3-4.5,3.5-8.8,6.4-12.5c3.2-4.1,11.7-13.9,23.6-14.6
	c3.3-0.2,6-2.8,6.3-6.2l1.7-19.9c0.3-3.7-2.4-7-6.2-7.3c-0.4,0-0.8,0-1.1,0c-28.5,2.4-71.1,25.6-77,63.1
	c-3.9,24.6,2.4,50.9,16.1,66.9c7,8.6,17.1,14.2,28.1,15.3h0.1c1.2,0.1,2.5,0.2,3.8,0.2c15.8,0.6,31.1-5.9,41.5-17.8
	C213.2,123.2,216.6,110,214.2,97.3L214.2,97.3z M141.6,126.5c-11.1-12.9-16.3-35.5-13-56.1c4.3-27,33.8-45.4,56.8-50.5l-0.5,6
	c-16.5,3.7-29.4,18.1-34.7,31.2c-3.4,8.3-3.2,15.2,0.5,19.3c3.2,3.4,8.1,4.5,12.4,2.8c1.6-0.5,3.2-0.8,4.9-1c0.1,0,0.1,0,0.2,0
	c4.8,0.7,20.7,4.2,23.8,21.4c1.6,8.3-0.5,17-5.7,23.7c-6.6,8.1-16.3,13-26.7,13.6C152.5,135.9,146.1,132.1,141.6,126.5L141.6,126.5z
	"/>
</svg>
